<?xml version="1.0" encoding="UTF-8"?>
<svg width="32px" height="32px" viewBox="0 0 32 32" version="1.1" xmlns="http://www.w3.org/2000/svg">
    <title>Countries API Favicon</title>
    <g stroke="none" stroke-width="1" fill="none" fill-rule="evenodd">
        <circle fill="#2B3945" cx="16" cy="16" r="16"/>
        <path d="M16,4 C22.6274,4 28,9.37258 28,16 C28,22.6274 22.6274,28 16,28 C9.37258,28 4,22.6274 4,16 C4,9.37258 9.37258,4 16,4 Z M16,6 C10.4772,6 6,10.4772 6,16 C6,21.5228 10.4772,26 16,26 C21.5228,26 26,21.5228 26,16 C26,10.4772 21.5228,6 16,6 Z" fill="#FFFFFF" fill-rule="nonzero"/>
        <path d="M8,16 L24,16 M16,8 L16,24 M12,8.5 C12,8.5 16,12 16,16 C16,20 12,23.5 12,23.5 M20,8.5 C20,8.5 16,12 16,16 C16,20 20,23.5 20,23.5" stroke="#FFFFFF" stroke-width="1.5" stroke-linecap="round"/>
    </g>
</svg>
